# xmcd CD database file
# Copyright (C) 1997 Ti Kan
#
# Track frame offsets:
#  150
#  14172
#  26685
#  39247
#  55410
#  68440
#  87267
#  101475
#  114165
#  125430
#
# Disc length: 1836 seconds
#
# Revision: 1
# Processed by: cddbd v1.4b41PL1 Copyright (c) Steve Scherf et al.
# Submitted via: CDWizzard Release:4.32
#
DISCID=79072a0a
DTITLE=Ronnie McDowell - Hit After Hit
DYEAR=1900
DGENRE=
TTITLE0=You're Gonna Ruin My Bad Reputation
TTITLE1=In A New York Minute
TTITLE2=I Dream Of Women Like You
TTITLE3=Personally
TTITLE4=Wandering Eyes
TTITLE5=You Give Good Love
TTITLE6=Love Talks
TTITLE7=Older Women
TTITLE8=Watchin' Girls Go By
TTITLE9=You Made A Wanted Man Of Me
EXTD=
EXTT0=
EXTT1=
EXTT2=
EXTT3=
EXTT4=
EXTT5=
EXTT6=
EXTT7=
EXTT8=
EXTT9=
PLAYORDER=
